<?xml version="1.0" encoding="utf-8"?>
<!-- Generator: Adobe Illustrator 16.0.0, SVG Export Plug-In . SVG Version: 6.00 Build 0)  -->
<!DOCTYPE svg PUBLIC "-//W3C//DTD SVG 1.1//EN" "http://www.w3.org/Graphics/SVG/1.1/DTD/svg11.dtd">
<svg version="1.1" id="Layer_1" xmlns="http://www.w3.org/2000/svg" xmlns:xlink="http://www.w3.org/1999/xlink" x="0px" y="0px"
	 width="850.39px" height="226.77px" viewBox="0 0 850.39 226.77" enable-background="new 0 0 850.39 226.77" xml:space="preserve">
<g>
	<path fill="#FDFDFE" d="M344.9,43.414L344.9,43.414c-11.213,0-20.301,9.086-20.301,20.298v118.247h40.598V63.712
		C365.197,52.5,356.115,43.414,344.9,43.414"/>
	<path fill="#FDFDFE" d="M283.83,43.425h-58.828c-11.217,0-20.298,9.088-20.298,20.298c0,11.217,9.082,20.298,20.298,20.298h40.623
		c4.501,0,8.146,3.65,8.146,8.135v89.802h40.602V73.969C314.374,57.093,300.705,43.425,283.83,43.425"/>
	<path fill="#FDFDFE" d="M452.293,143.172c-16.835,0-30.48-13.647-30.48-30.473c0-16.836,13.645-30.479,30.48-30.479
		c16.831,0,30.479,13.643,30.479,30.479C482.771,129.524,469.124,143.172,452.293,143.172 M551.501,43.414
		c-11.21,0-20.296,9.086-20.296,20.298V93.37h-12.381c-8.363-28.851-34.981-49.945-66.531-49.945
		c-38.254,0-69.266,31.005-69.266,69.274c0,38.253,31.011,69.26,69.266,69.26c30.824,0,56.951-20.143,65.94-47.984h12.972v47.984
		h40.601V63.712C571.806,52.5,562.721,43.414,551.501,43.414"/>
	<path fill="#FDFDFE" d="M622.282,92.172c0-4.502,3.646-8.15,8.133-8.15h12.936v57.336h-12.936c-4.487,0-8.133-3.626-8.133-8.133
		V92.172z M581.568,73.962v10.06v57.048v0.288v10.058c0,16.868,13.672,30.543,30.54,30.543h78.498v-40.601h-10.892V84.022h10.892
		V43.42h-78.498C595.24,43.42,581.568,57.09,581.568,73.962"/>
	<path fill="#FDFDFE" d="M825.856,142.29c-11.334,0-20.521,9.199-20.521,20.534c0,11.333,9.188,20.532,20.521,20.532
		c11.336,0,20.533-9.199,20.533-20.532C846.39,151.489,837.192,142.29,825.856,142.29"/>
	<path fill="#FDFDFE" d="M141.976,121.807c0.403-2.979,0.618-6.015,0.618-9.107c0-3.045-0.215-6.037-0.59-8.976h14.032v18.083
		H141.976z M73.331,143.172c-16.834,0-30.483-13.647-30.483-30.473c0-16.836,13.648-30.479,30.483-30.479
		c16.835,0,30.479,13.643,30.479,30.479C103.81,129.524,90.167,143.172,73.331,143.172 M176.334,43.414
		c-11.216,0-20.298,9.086-20.298,20.298v3.669v1.176H126.72c-12.707-15.354-31.911-25.132-53.389-25.132
		c-38.254,0-69.277,31.005-69.277,69.274c0,38.253,31.022,69.26,69.277,69.26c21.478,0,40.682-9.78,53.389-25.14h29.316v1.185
		v23.955h40.594V63.712C196.63,52.5,187.548,43.414,176.334,43.414"/>
	<path fill="#FDFDFE" d="M748.31,43.494c-26.225,0-47.475,21.25-47.475,47.473v90.992h40.6V90.967c0-3.794,3.08-6.877,6.875-6.877
		c3.802,0,6.866,3.083,6.866,6.877v90.992h40.601V90.967C795.776,64.744,774.522,43.494,748.31,43.494"/>
</g>
</svg>
