<?xml version="1.0" encoding="utf-8"?>
<!-- Generator: Adobe Illustrator 16.0.0, SVG Export Plug-In . SVG Version: 6.00 Build 0)  -->
<!DOCTYPE svg PUBLIC "-//W3C//DTD SVG 1.1//EN" "http://www.w3.org/Graphics/SVG/1.1/DTD/svg11.dtd">
<svg version="1.1" id="Layer_1" xmlns="http://www.w3.org/2000/svg" xmlns:xlink="http://www.w3.org/1999/xlink" x="0px" y="0px"
	 width="300px" height="80px" viewBox="0 0 300 80" enable-background="new 0 0 300 80" xml:space="preserve">
<g id="logo" transform="translate(-936.508 -300.006)">
	<path id="패스_1" fill="#FFFFFF" d="M964.769,343.608l-11.165-25.879h-12.94l18.239,38.665l-10.445,22.999h12.452l27.731-61.664
		h-12.939L964.769,343.608z"/>
	<path id="패스_2" fill="#FFFFFF" d="M1013.053,316.468c-12.168-0.129-22.123,9.621-22.251,21.789
		c-0.129,12.169,9.621,22.124,21.789,22.252c0.155,0,0.308,0,0.489,0c4.631-0.077,9.029-2.032,12.219-5.377v4.424h10.136v-19.679
		c0.489-12.425-9.185-22.869-21.584-23.358C1013.569,316.468,1013.311,316.468,1013.053,316.468z M1013.053,349.809
		c-6.25,0.257-11.55-4.58-11.807-10.857c-0.257-6.252,4.579-11.551,10.856-11.808c6.25-0.258,11.55,4.579,11.808,10.855
		c0,0.154,0,0.335,0,0.488c0.18,6.046-4.554,11.114-10.625,11.321C1013.208,349.781,1013.132,349.781,1013.053,349.809
		L1013.053,349.809z"/>
	<path id="패스_3" fill="#FFFFFF" d="M1068.08,316.468c-3.936,0-9.492,1.285-12.219,5.556v-5.067h-10.856v42.599h11.345v-24.284
		c-0.104-4.784,3.704-8.746,8.515-8.849c0.179,0,0.386,0,0.565,0c4.579-0.386,8.618,3.036,8.978,7.615
		c0.025,0.386,0.025,0.771,0.025,1.131v24.363h11.345v-25.006C1085.78,324.983,1081.02,316.468,1068.08,316.468z"/>
	<path id="패스_4" fill="#FFFFFF" d="M1115.748,316.468c-12.168,0-22.02,9.852-22.02,22.02c0,12.168,9.852,22.021,22.02,22.021
		s22.02-9.853,22.02-22.021l0,0C1137.744,326.347,1127.916,316.493,1115.748,316.468z M1115.748,349.731
		c-6.225,0.258-11.498-4.604-11.73-10.857c-0.258-6.225,4.605-11.498,10.857-11.729c6.225-0.258,11.498,4.604,11.729,10.855
		c0,0.154,0,0.335,0,0.488c0.154,6.046-4.604,11.088-10.65,11.243C1115.905,349.704,1115.824,349.704,1115.748,349.731
		L1115.748,349.731z"/>
	<rect id="사각형_5" x="1146.619" y="300.621" fill="#FFFFFF" width="11.242" height="58.911"/>
	<path id="패스_5" fill="#FFFFFF" d="M1168.793,358.066c0,7.717-4.656,10.212-8.926,10.212v11.088
		c6.432,0,19.938-1.775,20.014-21.146v-40.388h-11.088V358.066z"/>
	<path id="패스_6" fill="#FFFFFF" d="M1209.953,316.468c-12.168-0.129-22.123,9.621-22.252,21.789
		c-0.129,12.169,9.621,22.124,21.787,22.252c0.156,0,0.311,0,0.49,0c4.629-0.077,9.029-2.032,12.221-5.377v4.424h10.135v-19.679
		c0.49-12.425-9.184-22.869-21.584-23.358C1210.444,316.468,1210.186,316.468,1209.953,316.468z M1209.953,349.809
		c-6.25,0.257-11.551-4.58-11.807-10.857c-0.26-6.252,4.578-11.551,10.855-11.808c6.252-0.258,11.551,4.579,11.807,10.855
		c0,0.154,0,0.335,0,0.488c0.18,6.046-4.553,11.114-10.623,11.321C1210.108,349.781,1210.031,349.781,1209.953,349.809
		L1209.953,349.809z"/>
</g>
</svg>
